<svg xmlns="http://www.w3.org/2000/svg" viewBox="0 0 500 500"><g id="Capa_2" data-name="Capa 2" fill="#B4040A"><g id="Platform"><path d="M250,0C111.93,0,0,111.93,0,250S111.93,500,250,500,500,388.07,500,250,388.07,0,250,0Zm0,477.27C124.48,477.27,22.73,375.52,22.73,250S124.48,22.73,250,22.73,477.27,124.48,477.27,250,375.52,477.27,250,477.27Z"/><path d="M386.15,357.44V339.27H370.37V271.16H354.7l-62.88,76.27v10h49v29.7H330.55v4.46H380.6v-4.46H370.37v-29.7Zm-79.5-18.17,34.13-41.15v41.15Z"/><rect x="298.56" y="243.74" width="95.53" height="16.97"/><path d="M357.17,165c14.94-4.33,25.68-13.75,25.68-26.55,0-18.56-17.83-30-39.83-30-14.72,0-26.62,3.33-34.74,13.92-2.36,3.08-3.68,7.87-3.68,12a17,17,0,1,0,18.35-17c2.16-4.51,10.29-4.75,14-4.8,5.29-.06,11.82,4.29,11.82,9.58v30.9c0,5.28-5,9.57-10.3,9.57H320.32v4.64l17.85.07c7.85,0,12.91,6.3,12.91,14.15V215.6c0,7.85-7.69,14.07-15.54,14.07-4.9-.22-14.13-1.28-19.42-7h0a17,17,0,1,0-17-17s-1.42,16.33,17,24.23c6.53,2.79,10.74,3.48,28.05,3.48,24.89,0,45.07-15.3,45.07-34.16C389.23,179.62,375.65,169.24,357.17,165Z"/><path d="M255,145.6c-12.17-12.69-32.18-26.91-59.19-26.91-18.88,0-36.21,5.56-48.16,13a88.51,88.51,0,0,0-41.78,75.44c0,43.58,30.27,78.92,67.6,78.92,16.31,0,31.27-6.75,42.94-18,0,0-.11,66.95-.16,66.92,0,20-16.07,39.54-36.1,39.54a36.19,36.19,0,0,1-11.5-1.89,33.23,33.23,0,1,0-43.84-31.48c0,10.55,5.25,19.56,12.6,26,9,7.89,25.4,14,44.77,14,0,0,57.08,6,88.73-67.08.82-1.9,12.81-27.5,12.81-72.33C283.76,194.58,268.69,159.83,255,145.6ZM217,247a25.1,25.1,0,1,1-50.19,0V150.68a25.1,25.1,0,1,1,50.19,0Z"/></g></g></svg>