<?xml version="1.0" encoding="UTF-8" standalone="no"?>
<!-- Created with Inkscape (http://www.inkscape.org/) -->

<svg
   xmlns:dc="http://purl.org/dc/elements/1.1/"
   xmlns:cc="http://creativecommons.org/ns#"
   xmlns:rdf="http://www.w3.org/1999/02/22-rdf-syntax-ns#"
   xmlns:svg="http://www.w3.org/2000/svg"
   xmlns="http://www.w3.org/2000/svg"
   xmlns:sodipodi="http://sodipodi.sourceforge.net/DTD/sodipodi-0.dtd"
   xmlns:inkscape="http://www.inkscape.org/namespaces/inkscape"
   id="svg3336"
   version="1.1"
   inkscape:version="0.91 r13725"
   width="929.0625"
   height="690.9375"
   viewBox="0 0 929.0625 690.9375"
   sodipodi:docname="Banner4.svg">
  <metadata
     id="metadata3342">
    <rdf:RDF>
      <cc:Work
         rdf:about="">
        <dc:format>image/svg+xml</dc:format>
        <dc:type
           rdf:resource="http://purl.org/dc/dcmitype/StillImage" />
        <dc:title></dc:title>
      </cc:Work>
    </rdf:RDF>
  </metadata>
  <defs
     id="defs3340" />
  <sodipodi:namedview
     pagecolor="#ffffff"
     bordercolor="#666666"
     borderopacity="1"
     objecttolerance="10"
     gridtolerance="10"
     guidetolerance="10"
     inkscape:pageopacity="0"
     inkscape:pageshadow="2"
     inkscape:window-width="1600"
     inkscape:window-height="837"
     id="namedview3338"
     showgrid="false"
     inkscape:zoom="0.96969697"
     inkscape:cx="464.53125"
     inkscape:cy="345.46875"
     inkscape:window-x="-8"
     inkscape:window-y="-8"
     inkscape:window-maximized="1"
     inkscape:current-layer="svg3336" />
  <path
     style="fill:#000000"
     d="m 487.96875,690.31582 c -1.03125,-0.2223 -3.35156,-0.99399 -5.15625,-1.71486 -1.80469,-0.72088 -5.58432,-1.77015 -8.39919,-2.33172 -5.55416,-1.10807 -11.97508,-3.92439 -16.48707,-7.23149 -1.57025,-1.15093 -6.63275,-3.33839 -11.25,-4.86103 -4.61724,-1.52264 -10.88101,-3.88005 -13.91947,-5.2387 -4.31237,-1.92828 -7.60346,-2.59069 -15,-3.01914 -9.96294,-0.57712 -14.46545,-2.1262 -9.38771,-3.22984 1.49858,-0.32571 6.50234,-0.64211 11.11947,-0.70312 11.73247,-0.15502 25.24909,3.72288 37.72842,10.82425 15.19988,8.64949 32.67793,15.28982 40.34394,15.32763 3.53273,0.0174 6.81411,0.96683 6.81411,1.97154 0,0.82136 -12.80612,0.98253 -16.40625,0.20648 z m 15.9375,-9.1749 c -5.67187,-3.83035 -13.6875,-10.20676 -17.8125,-14.16982 -10.81432,-10.38977 -11.82315,-11.00607 -25.81875,-15.77278 -20.04496,-6.82705 -26.86911,-6.25502 -50.26723,4.21355 -13.31292,5.95635 -28.99756,10.62799 -40.8277,12.16045 -9.98927,1.29399 -20.36243,0.44855 -36.79243,-2.99872 -4.61648,-0.9686 -9.83329,-1.7611 -11.59292,-1.7611 -1.75963,0 -5.15438,-0.63248 -7.5439,-1.40549 -15.12713,-4.89371 -19.4692,-6.16717 -28.71957,-8.42299 -12.48165,-3.04381 -28.96955,-10.92799 -34.92188,-16.69895 -2.1914,-2.12462 -3.98437,-4.30872 -3.98437,-4.85353 0,-0.54481 -0.84375,-2.56481 -1.875,-4.4889 -2.38864,-4.45667 -2.36233,-7.85037 0.12472,-16.09487 3.68105,-12.20251 6.46301,-17.64172 14.40282,-28.16003 17.60834,-23.32674 43.14414,-41.38678 81.56621,-57.68719 5.15625,-2.18752 12.11719,-5.35021 15.46875,-7.02819 3.35156,-1.67799 7.44041,-3.34263 9.08633,-3.69919 1.64593,-0.35657 4.63976,-1.84151 6.65298,-3.29988 3.2722,-2.37036 13.11454,-7.36019 20.12007,-10.20037 3.33905,-1.35371 3.30682,-3.94405 -0.0802,-6.44821 -5.57239,-4.11984 -21.6259,-11.38451 -30.62292,-13.85774 -5.15625,-1.41743 -12.20026,-3.77817 -15.65336,-5.24611 -3.45309,-1.46794 -9.14841,-3.12414 -12.65625,-3.68047 -3.50783,-0.55631 -11.44039,-2.07831 -17.62789,-3.38222 -10.45908,-2.20409 -13.78868,-2.41802 -47.35989,-3.04301 -19.86044,-0.36974 -36.5245,-0.92419 -37.03125,-1.23212 -0.50675,-0.30792 -4.92917,-0.25237 -9.82761,0.12345 -6.83398,0.52432 -9.72459,0.36838 -12.42337,-0.67023 -3.50125,-1.34744 -7.48009,-1.28798 -23.11523,0.34542 -3.30404,0.34517 -10.89779,0.14958 -16.875,-0.43466 -16.51882,-1.61462 -24.64896,-2.12472 -38.85348,-2.4377 -13.12715,-0.28926 -28.8056,-1.87073 -33.794686,-3.40885 -1.494881,-0.46089 -3.900808,-0.83797 -5.346478,-0.83797 -1.44567,0 -3.597561,-0.37682 -4.781979,-0.83738 -1.184418,-0.46056 -5.950362,-1.32821 -10.590987,-1.92811 -4.640625,-0.5999 -10.335938,-1.69693 -12.65625,-2.43784 -2.320313,-0.74092 -7.804688,-2.4444 -12.1875,-3.78551 -4.382813,-1.34113 -10.289063,-3.84221 -13.125,-5.55798 -2.835938,-1.71578 -7.238601,-4.10168 -9.783696,-5.302 -2.545096,-1.20034 -5.075286,-3.02618 -5.622646,-4.05743 -2.380283,-4.48456 -5.625363,-8.20197 -9.043374,-10.35967 -2.021406,-1.27606 -3.675284,-2.77703 -3.675284,-3.33549 0,-0.55847 -0.8712522,-2.23896 -1.936116,-3.73442 C 5.3639899,413.62935 4.4500148,410.66899 4.2858922,408.0507 4.1322355,405.59938 3.4908345,400.85156 2.8605565,397.5 2.0582749,393.23379 1.8089395,382.12796 2.0291733,360.46875 2.2433082,339.40934 1.9104854,323.89376 0.98679469,311.87503 -0.2785982,295.4102 -0.25632798,293.63894 1.3168392,285.62503 3.6708591,273.63337 7.2274289,266.65944 14.42045,259.93072 c 5.16676,-4.83325 7.397934,-6.10488 18.205082,-10.37578 6.774157,-2.67709 13.17688,-4.86744 14.228272,-4.86744 1.051393,0 6.375246,-1.05469 11.830782,-2.34375 5.455538,-1.28906 11.463785,-2.35382 13.351662,-2.36612 1.887876,-0.0123 5.120002,-0.47036 7.182502,-1.01793 11.53539,-3.06245 92.97902,-3.96624 129.375,-1.43568 35.80886,2.48974 56.74943,4.25928 57.75448,4.88044 0.52366,0.32364 8.20406,0.95248 17.06756,1.39744 8.8635,0.44495 18.64671,1.22928 21.74046,1.74295 3.09375,0.51369 9,1.38218 13.125,1.93 4.125,0.54782 12.77344,1.79017 19.21875,2.76078 12.03563,1.81248 23.55709,3.05519 44.0625,4.75257 14.47279,1.19802 33.44434,3.41273 40.3125,4.70602 10.68544,2.0121 15,2.2136 15,0.7005 0,-0.76998 -2.3155,-5.14643 -5.14556,-9.72546 -2.83006,-4.57904 -5.66658,-9.3802 -6.30338,-10.66926 -0.63679,-1.28906 -4.12207,-5.77109 -7.74506,-9.96006 -16.45764,-19.02864 -24.45936,-32.58864 -25.41803,-43.07435 l -0.594,-6.49684 4.5333,-6.8241 c 4.15582,-6.25587 5.11004,-7.09785 11.45969,-10.11178 3.80952,-1.80822 8.28931,-4.32722 9.95508,-5.59778 1.66578,-1.27054 4.04356,-2.30767 5.28395,-2.30471 1.2404,0.003 6.68495,-1.22497 12.09901,-2.72874 5.41406,-1.50377 12.16406,-3.36505 15,-4.13618 8.68163,-2.36065 32.39625,-12.41253 36.87914,-15.63189 2.32805,-1.67188 5.5389,-4.66504 7.13524,-6.65146 7.80717,-9.71499 7.875,-17.59778 0.20994,-24.40105 -7.72671,-6.858032 -16.28608,-11.917177 -25.00557,-14.779952 -8.71135,-2.860103 -12.99531,-4.513055 -20.0249,-7.726556 -2.24807,-1.02768 -4.30138,-1.654527 -4.5629,-1.392995 -1.10489,1.104884 4.41958,6.464196 10.29092,9.983285 3.48047,2.086075 6.32813,4.191291 6.32813,4.678259 0,0.486966 2.45797,2.683199 5.46217,4.880521 5.29093,3.869878 12.57193,11.381438 15.78425,16.284068 1.33139,2.03195 2.03778,2.30387 4.69173,1.80598 3.31012,-0.62098 4.05076,0.37539 1.7181,2.31133 -1.80109,1.49477 -1.82693,4.6875 -0.038,4.6875 0.75257,0 2.42523,-1.13984 3.71702,-2.53298 1.29179,-1.39314 2.59854,-2.28315 2.90389,-1.9778 1.34156,1.34156 -1.24906,6.46526 -4.61936,9.13607 -3.4955,2.77004 -3.74239,2.82817 -5.44955,1.28322 -0.9835,-0.89005 -3.08614,-4.22629 -4.67253,-7.41385 -2.28324,-4.58774 -5.46174,-8.24155 -15.25143,-17.53207 -6.80188,-6.455081 -14.86412,-13.484114 -17.91607,-15.620087 -6.23359,-4.362691 -8.83645,-8.766298 -13.18868,-22.313048 -2.17542,-6.77123 -2.3538,-8.207889 -1.41018,-11.357438 0.59416,-1.983104 1.95117,-4.712793 3.01558,-6.065976 2.22084,-2.823342 10.32636,-8.282407 14.47175,-9.746719 4.02752,-1.422677 18.41558,-3.775296 27.1875,-4.445482 4.125,-0.315156 11.08594,-1.221925 15.46875,-2.015046 4.38281,-0.793119 10.92188,-1.766723 14.53125,-2.163564 3.60938,-0.396842 10.06475,-1.83555 14.34527,-3.19713 4.28055,-1.36158 8.1939,-2.4756 8.69636,-2.4756 0.50246,0 7.75802,-3.638769 16.12348,-8.086155 8.43889,-4.486425 18.13136,-8.89501 21.77242,-9.9031037 3.60938,-0.9993216 8.38368,-2.8792395 10.60956,-4.1775953 5.29676,-3.08960747 7.15382,-2.42472882 6.29805,2.2548801 -0.90798,4.9650692 -5.94554,9.7732959 -16.43886,15.6904799 -11.82854,6.670119 -16.52734,11.849855 -25.88145,28.530546 -5.78022,10.307565 -13.05204,18.53355 -19.12064,21.629515 -2.06135,1.051622 -3.74791,2.325341 -3.74791,2.830487 0,1.678758 8.7072,0.949461 16.35788,-1.370102 12.30136,-3.72958 19.38397,-4.59353 31.9389,-3.895968 11.03709,0.61323 11.63821,0.545553 19.98108,-2.249565 4.73091,-1.584999 9.97173,-3.686964 11.64627,-4.671034 4.24339,-2.493694 17.02937,-7.163491 23.20087,-8.473606 6.57727,-1.396256 32.17989,-2.052889 35.2046,-0.902897 2.93501,1.115889 3.04373,4.391631 0.18602,5.604795 -1.16015,0.492512 -5.69531,1.781749 -10.07812,2.86497 -7.12536,1.761045 -14.65882,5.296756 -23.90625,11.220014 -1.54688,0.990821 -4.5,2.706555 -6.5625,3.812743 -2.0625,1.106188 -7.21301,4.088977 -11.44558,6.62842 -9.18869,5.512992 -27.66459,11.812644 -43.39817,14.797304 -5.99148,1.136578 -12.96788,3.128606 -15.70313,4.483842 l -4.92187,2.43863 0,5.0273 c 0,4.33583 0.4775,5.66688 3.47159,9.67736 2.99227,4.00803 4.31903,4.92736 9.60938,6.65852 3.37577,1.10464 8.03622,2.85456 10.35653,3.8887 4.68744,2.08914 14.57934,8.88688 17.28909,11.88113 0.96333,1.06446 2.29169,1.93539 2.95192,1.93539 1.38053,0 10.66989,10.26042 14.63507,16.16496 6.24015,9.29217 7.85855,16.90453 5.03213,23.66911 -1.73191,4.14504 -9.07081,11.47422 -13.22926,13.21172 -1.78279,0.7449 -3.24145,1.72665 -3.24145,2.18167 0,0.45501 4.77036,0.86675 10.60079,0.91496 5.83043,0.0482 12.89684,0.54168 15.70313,1.09659 2.80628,0.5549 20.7117,1.2176 39.78983,1.47265 28.88843,0.3862 36.88175,0.19855 47.8125,-1.12241 17.01892,-2.05673 31.24147,-2.59311 49.21875,-1.8562 6.84698,0.28067 19.38877,2.09667 20.89064,3.02487 0.54174,0.33482 5.4497,0.73194 10.90655,0.88248 5.45686,0.15055 13.71844,0.65567 18.35906,1.1225 10.65607,1.07197 32.8549,5.40882 36.5625,7.14299 1.54687,0.72353 6.33108,1.98883 10.63156,2.81178 5.43668,1.04039 9.06596,2.35417 11.91145,4.31192 2.25081,1.5486 6.29407,3.23317 8.98502,3.74351 7.84744,1.48823 23.50614,10.69283 31.06043,18.25815 1.62832,1.63071 4.197,6.35788 6.11306,11.25 3.69442,9.43262 4.39885,15.58804 5.36436,46.875 0.28643,9.28125 1.19447,21.9375 2.0179,28.125 0.82341,6.1875 1.77559,13.78125 2.11594,16.875 0.34035,3.09375 1.13073,6.54649 1.75642,7.67274 0.62569,1.12626 1.13761,3.51417 1.13761,5.30645 0,1.79228 1.26529,5.93331 2.81176,9.20226 1.54647,3.26896 2.81666,6.7873 2.82265,7.81855 0.006,1.03125 0.63913,3.94596 1.40698,6.47712 1.93894,6.39151 1.79536,9.64949 -0.47889,10.86663 -1.03125,0.55191 -1.875,1.76499 -1.875,2.69574 0,0.93075 -1.2655,4.22477 -2.81222,7.32003 -4.54637,9.09809 -15.50787,17.15811 -39.37528,28.95272 -16.71692,8.26104 -21.40082,10.31451 -25.19722,11.04668 -1.74128,0.33583 -6.80378,2.00782 -11.25,3.71553 -12.5281,4.81184 -22.87673,8.16356 -25.17436,8.15348 -1.14969,-0.005 -5.36844,0.60101 -9.375,1.34679 -33.41372,6.21965 -65.49923,9.83291 -87.73693,9.88039 -3.51437,0.007 -7.13887,0.41455 -8.05445,0.90456 -2.46087,1.31701 -26.30995,1.79264 -45.32307,0.90388 -14.37423,-0.67192 -26.30509,-0.8562 -41.48272,-0.64075 -6.78044,0.0963 -57.913,-2.14977 -67.96875,-2.98556 -5.41406,-0.44999 -12.16406,-1.23336 -15,-1.74081 -2.83594,-0.50746 -9.32815,-1.23146 -14.42714,-1.60891 -10.50732,-0.7778 -11.03975,-0.10074 -3.08464,3.92259 2.67055,1.35064 7.17584,4.00493 10.01178,5.89845 2.83594,1.89351 7.26562,4.64268 9.84375,6.10927 2.57812,1.46661 6.27075,4.07772 8.20582,5.80248 2.13684,1.9046 4.52958,3.14765 6.09375,3.16575 3.13803,0.0364 5.15613,1.48872 8.10355,5.83198 5.02311,7.40198 3.95245,14.16065 -3.48979,22.02973 -6.07714,6.42567 -18.75397,16.52826 -27.35083,21.79677 -6.15788,3.77379 -8.30537,5.11029 -17.10938,10.64806 -1.93359,1.21623 -7.3125,4.42592 -11.95312,7.13261 -4.64063,2.7067 -12.23438,7.34832 -16.875,10.31473 -10.33128,6.60401 -13.54227,8.54004 -20.15625,12.15294 -2.83594,1.54915 -7.47656,4.50606 -10.3125,6.57091 -2.83594,2.06486 -9.375,6.14038 -14.53125,9.0567 -14.86377,8.40683 -18.60183,10.85026 -20.94187,13.68897 -1.20553,1.46242 -3.42037,3.29424 -4.92187,4.0707 -2.9916,1.54701 -3.5696,3.6533 -1.24708,4.54454 0.8156,0.31298 3.69529,0.56905 6.39931,0.56905 11.48733,0 35.65647,4.26158 51.18026,9.02428 12.50227,3.8357 17.0594,6.05479 28.48623,13.87134 11.86377,8.11542 11.82067,8.08118 16.0016,12.71446 7.544,8.36021 17.9022,17.10502 23.46704,19.81179 1.72659,0.83983 4.33449,2.33975 5.79532,3.33315 4.02175,2.73489 16.56338,8.64689 21.48655,10.12854 2.54152,0.76489 6.17817,1.10188 8.70484,0.80666 3.52957,-0.41242 4.82094,-0.12645 6.91779,1.5319 1.41797,1.12143 2.57813,2.47291 2.57813,3.00327 0,1.44892 -45.42152,0.43127 -49.87495,-1.11742 -3.16267,-1.09983 -3.97456,-0.98687 -9.20242,1.28039 -4.57108,1.98242 -7.19445,2.48463 -12.93755,2.47672 l -7.20383,-0.01 -10.3125,-6.96424 z m 26.60156,1.71064 c 4.07646,-0.81528 3.65504,-2.75335 -1.05469,-4.8504 -2.1914,-0.97574 -6.57411,-3.42126 -9.73935,-5.4345 -3.16524,-2.01322 -7.06758,-4.37907 -8.67188,-5.25743 -3.0305,-1.65923 -3.97388,-4.49673 -1.49502,-4.49673 0.78202,0 5.94999,2.26028 11.48437,5.02284 11.19673,5.58901 19.78532,8.60222 27.17188,9.53294 6.66772,0.84015 6.62567,-1.19964 -0.0948,-4.5999 -6.37113,-3.2235 -19.90083,-14.06672 -29.22924,-23.42544 -6.826,-6.84818 -16.57449,-14.17601 -23.87907,-17.94962 -5.66281,-2.92545 -30.74704,-10.6639 -40.94875,-12.63263 -5.37429,-1.03713 -13.56784,-1.88569 -18.20789,-1.88569 -5.56305,0 -9.33806,-0.46623 -11.08356,-1.36886 -1.45589,-0.75287 -2.80603,-1.21148 -3.00032,-1.01911 -0.19428,0.19236 -3.04326,0.62419 -6.33108,0.95963 -3.53724,0.36088 -6.98206,1.33538 -8.4375,2.38686 -1.35281,0.97733 -4.56902,2.46757 -7.14715,3.31164 -2.57812,0.84407 -5.95312,2.70429 -7.5,4.13381 -1.54687,1.42952 -3.50548,2.97109 -4.35246,3.42571 -5.84594,3.13781 -24.16691,21.17565 -26.49839,26.08888 -0.8211,1.73033 -1.4929,4.30365 -1.4929,5.71847 l 0,2.57241 6.3654,-0.53365 c 3.50097,-0.29351 8.66894,-1.44174 11.48438,-2.55161 2.81543,-1.10988 7.22834,-2.59534 9.80647,-3.30102 11.98456,-3.28039 14.96554,-4.29979 21.32052,-7.29104 13.05418,-6.14449 16.8258,-7.27037 27.76532,-8.28829 9.74145,-0.90644 11.13872,-0.82973 16.40625,0.9007 3.16685,1.04033 7.23447,2.18889 9.03916,2.55233 4.59217,0.92483 12.38382,5.0673 20.53267,10.91633 5.5782,4.00387 7.50856,6.06921 9.84375,10.53208 1.59766,3.05333 3.53764,5.85696 4.31108,6.23028 0.77344,0.37331 4.99219,2.4816 9.375,4.68506 12.17282,6.11992 17.1585,7.33582 24.25781,5.91595 z M 350.625,658.17158 c 0,-2.10533 0.54404,-4.02692 1.26076,-4.45312 0.69342,-0.41234 2.02705,-2.7816 2.96361,-5.26502 1.33797,-3.54776 3.79345,-6.46067 11.45906,-13.59375 5.36591,-4.99314 11.52056,-9.87073 13.67701,-10.83908 4.34589,-1.95154 4.25107,-1.90126 12.82706,-6.80128 6.44989,-3.68525 24.40675,-15.55613 26.44767,-17.48397 5.03596,-4.75693 42.67,-29.73536 44.80112,-29.73536 0.39002,0 1.21347,-0.6077 1.82989,-1.35044 0.61642,-0.74274 4.14855,-2.88424 7.84917,-4.75887 3.70062,-1.87465 7.57215,-4.16186 8.6034,-5.08272 2.14551,-1.91584 13.94907,-9.09306 21.84301,-13.28176 5.27478,-2.79891 17.12039,-9.91497 22.34571,-13.42381 11.72162,-7.87117 22.17526,-14.4733 26.07142,-16.46575 3.24698,-1.66046 6.12006,-4.30549 9.59333,-8.83189 7.15671,-9.3267 7.7188,-14.49183 1.94461,-17.86967 -1.67644,-0.9807 -11.19506,-7.19603 -21.15248,-13.81183 -21.27442,-14.13493 -28.33019,-18.12998 -33.52235,-18.98066 -4.46829,-0.73208 -4.66233,-0.59274 -13.95215,10.01918 -3.49337,3.99053 -6.73312,7.01972 -7.19944,6.73151 -0.46632,-0.28821 2.11112,-3.76413 5.72765,-7.72427 6.28993,-6.88756 7.96207,-10.45539 5.58785,-11.92274 -2.04993,-1.26694 -6.53109,1.74352 -9.30441,6.25075 -1.55457,2.5265 -2.8265,4.95752 -2.8265,5.40226 0,1.13887 -2.74774,3.29047 -3.38646,2.65175 -0.45923,-0.45923 2.86894,-5.92854 4.40477,-7.23854 0.30226,-0.25781 1.02525,-1.85895 1.60666,-3.55808 0.86836,-2.53776 0.81171,-3.1835 -0.31729,-3.61674 -2.41113,-0.92524 -5.70157,0.4913 -6.81435,2.93359 -0.59297,1.30143 -1.52389,2.36623 -2.06871,2.36623 -0.68811,0 -0.68101,-0.57846 0.0233,-1.89438 1.94231,-3.62924 -1.58476,-5.1417 -4.93018,-2.11413 -1.70036,1.53881 -1.86335,1.51422 -3.39154,-0.51175 -1.46748,-1.94548 -2.23963,-2.10441 -8.99194,-1.85086 l -7.3866,0.27737 -1.95193,5.66468 c -2.71009,7.86491 -16.64086,24.80407 -20.39886,24.80407 -0.57088,0 -3.82573,1.76116 -7.23301,3.91369 -3.40728,2.15253 -10.38224,5.98429 -15.4999,8.51504 -5.11766,2.53074 -10.64185,5.62115 -12.27599,6.86756 -1.63414,1.24642 -3.31106,2.26621 -3.72649,2.26621 -0.41544,0 -3.1178,1.102 -6.00526,2.44888 -2.88746,1.34689 -6.93742,3.23091 -8.99992,4.18671 -3.54298,1.64187 -9.67569,4.25119 -15.91171,6.77005 -3.38351,1.36667 -13.62891,6.54712 -22.52579,11.38986 -3.60938,1.96464 -12.89063,6.81131 -20.625,10.77036 -16.84045,8.62024 -17.74572,9.18612 -26.71875,16.70201 -21.77234,18.23671 -35.6515,32.6656 -39.4508,41.01338 -3.63796,7.99332 -6.4867,16.38057 -6.4867,19.09812 0,5.47849 1.95961,11.94978 4.42308,14.60652 3.1845,3.43435 16.90699,9.91836 28.85817,13.63577 5.15625,1.60385 14.01562,4.37021 19.6875,6.14747 12.87943,4.03572 24.45012,6.92806 28.125,7.03044 1.54687,0.0431 5.55469,0.83459 8.90625,1.75889 3.35156,0.9243 7.46484,1.73926 9.14062,1.81104 2.94533,0.12615 3.04688,0.007 3.04688,-3.57292 z m -78.15909,-30.78643 c -0.85307,-1.3803 1.33592,-6.90294 2.56253,-6.46503 0.58592,0.20917 0.94642,1.38686 0.8011,2.61706 -0.31375,2.65628 -2.53187,5.19379 -3.36363,3.84797 z m 16.76941,-0.17085 c -0.41331,-0.66873 -1.74464,-0.83669 -3.52782,-0.44504 -2.43766,0.53541 -2.77326,0.39261 -2.2545,-0.95928 0.33522,-0.87359 0.6095,-1.76476 0.6095,-1.98041 0,-0.95967 4.50396,-0.26303 6.14894,0.95107 1.36335,1.00624 1.55242,1.61461 0.75375,2.42543 -0.79996,0.81214 -1.23176,0.81419 -1.72987,0.008 z m -27.67282,-4.3182 c 0,-3.95964 2.08478,-7.8961 4.18184,-7.8961 0.9837,0 0.85252,1.08848 -0.59318,4.92187 -2.5123,6.66156 -3.58866,7.55363 -3.58866,2.97423 z m 253.125,-143.86302 c 0,-0.53181 0.73828,-1.22749 1.64062,-1.54596 0.90235,-0.31845 2.58985,-1.43344 3.75,-2.47774 2.89283,-2.60393 2.72325,-0.22552 -0.19176,2.68948 -2.34683,2.34683 -5.19886,3.07877 -5.19886,1.33422 z m -10.3125,-0.8449 c 0,-0.48088 0.84284,-1.14184 1.87298,-1.46879 1.03015,-0.32696 3.12487,-2.414 4.65494,-4.63788 2.37261,-3.44848 4.47593,-5.20651 6.22908,-5.20651 1.14629,0 -2.74342,5.719 -4.54577,6.6836 -1.14502,0.61279 -2.85877,2.10186 -3.80834,3.30903 -1.71745,2.18339 -4.40289,2.98882 -4.40289,1.32055 z m -9.80801,-1.05851 c 0.33833,-0.54743 1.61693,-1.37621 2.84134,-1.84172 1.22442,-0.46553 2.80559,-2.23247 3.51372,-3.92655 0.70813,-1.69408 1.98567,-3.65915 2.83898,-4.36681 1.3792,-1.14381 1.55147,-1.00144 1.55147,1.28216 0,3.16383 -6.32589,9.84825 -9.32003,9.84825 -1.20073,0 -1.78744,-0.40967 -1.42548,-0.99533 z m -90.99832,17.68351 c 4.65973,-2.26386 5.59949,-4.89092 2.13446,-5.96675 -1.16016,-0.36021 -3.16407,-1.39174 -4.45313,-2.29228 -1.28906,-0.90056 -5.28639,-2.8106 -8.88295,-4.24454 -3.59657,-1.43395 -8.44813,-3.72225 -10.78125,-5.08514 -2.33313,-1.36287 -7.12974,-3.91929 -10.65913,-5.68093 -3.5294,-1.76164 -5.9303,-3.36525 -5.33534,-3.56357 1.1025,-0.3675 16.22682,5.90452 18.78367,7.78954 0.77344,0.57022 5.83594,3.09314 11.25,5.60651 5.41406,2.51338 10.6875,5.27848 11.71875,6.14468 2.64088,2.21821 4.3655,2.66512 6.79688,1.76132 1.35763,-0.50466 2.10937,-1.56071 2.10937,-2.96327 0,-1.68575 -1.34548,-2.96624 -5.9422,-5.65521 -3.26821,-1.91182 -6.28595,-3.47604 -6.70608,-3.47604 -0.42014,0 -3.44259,-1.26563 -6.71656,-2.8125 -3.27397,-1.54688 -6.27084,-2.8125 -6.65974,-2.8125 -0.56154,0 -13.05658,-4.80418 -18.73566,-7.20362 -0.64157,-0.27107 -0.95023,-0.84275 -0.68593,-1.27041 0.75172,-1.21632 15.87607,4.38439 35.13367,13.01036 4.05323,1.81554 10.39105,5.55665 12.22456,7.21595 2.18041,1.97325 5.71904,1.25954 10.03389,-2.02377 1.67185,-1.27215 4.257,-2.82483 5.7448,-3.4504 3.03993,-1.27819 11.37175,-10.98333 11.37175,-13.24613 0,-0.81254 -0.78692,-1.46948 -1.76021,-1.46948 -0.96811,0 -2.32962,-0.68609 -3.02555,-1.52465 -1.14714,-1.38222 -0.88695,-1.46072 2.78516,-0.84032 3.56133,0.60168 4.01165,0.48515 3.72868,-0.96489 -0.19795,-1.0144 -2.12611,-2.27457 -5.00933,-3.27389 -2.57813,-0.89357 -7.27314,-2.92373 -10.43337,-4.51148 -8.18486,-4.1122 -18.16038,-6.19789 -18.16038,-3.797 0,0.5639 0.81565,1.23857 1.81256,1.49926 0.9969,0.2607 4.66412,1.9087 8.14937,3.66223 3.48525,1.75354 6.88835,3.18824 7.56245,3.18824 0.67409,0 1.22562,0.41143 1.22562,0.9143 0,0.57022 -0.97019,0.53324 -2.57813,-0.0983 -1.41796,-0.55693 -7.21875,-2.6317 -12.89062,-4.61061 -5.85033,-2.04117 -10.43231,-4.17082 -10.5894,-4.92182 -0.18886,-0.90288 -2.83103,-1.68113 -8.30932,-2.4475 -4.41782,-0.61803 -8.25533,-0.90077 -8.52778,-0.62831 -1.35331,1.3533 5.32333,4.60609 17.58275,8.56613 7.47656,2.41507 14.92313,4.97269 16.54793,5.68358 1.6248,0.7109 3.40346,1.29254 3.95257,1.29254 0.9034,0 4.44691,1.40258 10.20262,4.03837 1.16016,0.53128 2.10938,1.31656 2.10938,1.74505 0,1.28523 -4.12667,0.87968 -6.26107,-0.6153 -1.99226,-1.39544 -12.71168,-5.19759 -37.33268,-13.24179 -7.21875,-2.35853 -15.44531,-5.10409 -18.28125,-6.10125 -7.77281,-2.73307 -46.57479,-10.15775 -60.9375,-11.66027 -6.96094,-0.72821 -18.98438,-1.76726 -26.71875,-2.309 -7.73438,-0.54174 -19.75781,-1.84381 -26.71875,-2.89348 -15.17665,-2.28855 -35.23121,-4.24614 -56.25,-5.49071 -8.50781,-0.50377 -18.42188,-1.12165 -22.03125,-1.37307 -24.53989,-1.70934 -28.85114,-1.77714 -28.41341,-0.44682 0.24086,0.73201 1.96277,1.44626 3.8765,1.60799 1.89374,0.16003 3.44316,0.68738 3.44316,1.17188 0,1.10148 1.84838,1.25706 -16.55358,-1.39326 -18.69845,-2.69302 -46.3952,-4.20307 -44.72422,-2.43841 1.60643,1.6965 33.84678,6.05911 53.30905,7.21352 8.73347,0.51803 10.52407,0.94373 9.26512,2.20268 -0.56457,0.56457 -7.07693,0.38284 -17.7349,-0.49488 -27.40407,-2.25683 -43.91179,-4.91302 -52.290439,-8.41384 -4.389667,-1.83413 -9.083531,-1.87188 -9.083531,-0.0731 0,0.8261 -1.15015,1.46044 -2.974676,1.64063 -4.324566,0.42708 -4.408497,2.41218 -0.132399,3.13144 1.966704,0.33081 4.84145,0.97775 6.388325,1.43766 3.092348,0.91939 28.70254,3.88902 47.8125,5.54411 16.36592,1.41744 19.54422,1.94884 18.41422,3.07883 -0.6033,0.60331 -3.93974,0.56732 -9.66772,-0.10425 -4.81058,-0.56402 -13.59806,-1.28666 -19.52775,-1.60587 -28.357856,-1.52658 -45.78716,-5.32258 -54.267055,-11.81904 -2.522222,-1.93228 -6.223763,-2.25656 -7.227093,-0.63314 -0.367018,0.59385 0.06822,1.61755 0.967199,2.27491 1.045145,0.76422 1.426017,1.85206 1.056295,3.01695 -0.470972,1.4839 -0.0086,1.93931 2.493098,2.45555 6.744795,1.39182 19.066023,3.44272 29.041837,4.83411 11.366129,1.58529 16.098249,3.14238 9.654469,3.17675 -7.53708,0.0402 -41.698683,-4.55988 -45.934727,-6.1854 -0.774963,-0.29739 -1.409023,-0.12487 -1.409023,0.38337 0,1.61533 8.29545,4.10431 20.859375,6.25867 3.811736,0.65361 4.83613,2.39464 1.40625,2.39003 -2.967563,-0.004 -20.018684,-3.40367 -25.078125,-5.00011 -8.348678,-2.63433 -24.422041,-11.49776 -34.707292,-19.13887 -2.720581,-2.02117 -4.41699,-2.7339 -5.035336,-2.11555 -1.374123,1.37412 3.341475,5.89494 9.663947,9.26479 2.937504,1.56568 6.95711,4.13107 8.932458,5.70088 3.549816,2.82104 3.900295,3.72856 0.742877,1.92359 -0.895347,-0.51183 -3.315404,-1.50969 -5.377904,-2.21747 -2.0625,-0.70777 -4.545846,-1.62185 -5.518547,-2.03128 -1.306552,-0.54996 -1.658915,-0.39927 -1.348867,0.57684 0.354436,1.11587 15.533791,9.68999 23.273664,13.14624 4.850417,2.16595 18.169762,5.1023 30.9375,6.8204 1.804687,0.24286 8.34375,1.50155 14.53125,2.79712 10.82171,2.2659 15.30507,2.65459 69.84375,6.0552 6.44531,0.40189 28.80469,0.46422 49.6875,0.13853 36.41408,-0.56792 48.01519,-0.25974 75.9375,2.01731 27.85598,2.27164 39.65537,3.87084 46.85483,6.35041 2.84703,0.98054 7.07486,2.28032 9.39517,2.8884 3.79392,0.99425 29.5272,13.21933 37.3272,17.73298 5.49989,3.18263 10.89741,6.96592 13.10137,9.18318 1.18102,1.18814 2.32989,2.16025 2.55304,2.16025 0.22316,0 2.31546,-0.92782 4.64956,-2.06182 z M 418.125,475.32047 c -1.80469,-0.98364 -7.71094,-3.53508 -13.125,-5.66986 -5.41406,-2.13478 -13.99672,-5.74199 -19.07257,-8.01602 -5.07584,-2.27403 -9.71646,-4.14801 -10.3125,-4.1644 -0.59602,-0.0164 -1.92743,-0.68164 -2.95868,-1.47832 -1.79747,-1.38859 -1.7587,-1.42973 0.9375,-0.99484 1.54687,0.2495 7.24219,2.4064 12.65625,4.7931 5.41406,2.3867 10.6875,4.70998 11.71875,5.16284 1.03125,0.45286 5.25,1.98599 9.375,3.40696 8.04989,2.77301 15.46875,6.59984 15.46875,7.97915 0,1.21732 -0.97328,1.00583 -4.6875,-1.01861 z m 11.87264,-1.63397 c -1.08867,-1.7615 -10.76462,-6.62967 -16.42001,-8.26125 -2.91301,-0.8404 -8.67138,-2.92423 -12.79638,-4.63073 -4.125,-1.70651 -11.39828,-4.51698 -16.16286,-6.24551 -4.76458,-1.72851 -8.66692,-3.62396 -8.67187,-4.21209 -0.009,-1.0846 16.50144,4.61963 18.22535,6.29667 0.48985,0.47652 1.45359,0.86641 2.14165,0.86641 1.08921,0 7.08744,2.2331 28.10277,10.46244 5.21974,2.04399 7.24679,3.76708 6.62524,5.63173 -0.28068,0.84203 -0.56501,0.86717 -1.04389,0.0923 z M 71.25,444.34077 C 69.960937,443.91603 67.21875,443.1426 65.15625,442.62203 55.832389,440.26877 45,436.63154 45,435.85411 c 0,-1.31753 1.308742,-1.07168 10.593652,1.98998 14.290343,4.7122 17.248061,5.59341 18.77372,5.59341 0.802709,0 1.720204,0.42187 2.038878,0.9375 0.673859,1.09033 -1.793025,1.07395 -5.15625,-0.0342 z m 22.5,-2.77827 c -1.091904,-0.70565 -0.817583,-0.912 1.227206,-0.92315 1.519763,-0.008 2.388422,0.38212 2.054044,0.92315 -0.719409,1.16403 -1.480041,1.16403 -3.28125,0 z m 27.1875,-2.8125 c 0,-1.19782 5.64651,-1.19782 7.5,0 1.01708,0.65729 0.17388,0.91276 -3.04687,0.92315 -2.44922,0.008 -4.45313,-0.40753 -4.45313,-0.92315 z m 50.15625,-11.6925 -3.75,-1.2359 3.9077,-0.0983 c 4.48612,-0.11285 7.09592,0.65845 6.34409,1.87493 -0.66706,1.07934 -1.89638,0.97709 -6.50179,-0.54073 z m 552.69253,29.07259 c 9.00349,-0.75346 21.03808,-1.58879 26.74355,-1.8563 5.70547,-0.26751 15.4086,-1.36174 21.5625,-2.43161 6.15391,-1.06988 14.35298,-2.49805 18.22017,-3.1737 3.86719,-0.67566 12.51562,-2.52341 19.21875,-4.10612 6.70312,-1.58271 15.35156,-3.394 19.21875,-4.02511 3.86719,-0.63111 13.75991,-3.61173 21.98382,-6.62361 8.22392,-3.01187 15.26303,-5.47614 15.64245,-5.47614 0.37944,0 5.66151,-1.76432 11.73794,-3.9207 8.16399,-2.89721 12.03436,-4.82231 14.8263,-7.37451 2.07804,-1.89958 5.24255,-4.20211 7.03225,-5.11673 1.7897,-0.91462 5.65463,-3.95274 8.58871,-6.75139 8.36611,-7.9799 11.27594,-18.13674 8.76403,-30.59108 -0.64082,-3.17726 -2.25362,-11.06668 -3.58399,-17.53204 -2.98838,-14.52292 -5.04535,-34.66009 -5.74642,-56.25571 -0.58232,-17.93835 -1.89739,-35.13515 -2.8833,-37.70438 -0.94684,-2.46745 -2.82317,-1.99316 -8.39304,2.12154 -2.7919,2.0625 -5.45918,3.75 -5.92729,3.75 -0.4681,0 -1.85721,0.77415 -3.0869,1.72034 -13.50289,10.38982 -47.02237,20.33759 -82.79188,24.57066 -4.60273,0.54469 -8.7132,1.20333 -9.13438,1.46364 -1.33082,0.8225 -32.34626,1.78239 -52.69291,1.63078 -10.76398,-0.0803 -26.58429,-0.81842 -35.15625,-1.64048 -8.57196,-0.82207 -20.85883,-1.94458 -27.30414,-2.49447 -6.44531,-0.54989 -14.67187,-1.37926 -18.28125,-1.84304 -3.60937,-0.46379 -10.99219,-1.111 -16.40625,-1.43824 -5.41406,-0.32726 -14.69531,-1.43677 -20.625,-2.46559 -5.92969,-1.02882 -15.73294,-2.22388 -21.785,-2.65567 -6.05207,-0.43181 -11.44728,-1.05921 -11.98938,-1.39425 -0.5421,-0.33504 -6.55917,-0.98572 -13.37126,-1.44596 -6.81209,-0.46023 -16.18248,-1.27585 -20.82311,-1.81249 -4.64062,-0.53663 -13.28906,-0.98379 -19.21875,-0.99368 -5.92969,-0.01 -14.36719,-0.59185 -18.75,-1.29323 -4.38281,-0.70139 -12.39844,-1.76799 -17.8125,-2.37021 -5.41406,-0.60222 -19.125,-2.52112 -30.46875,-4.2642 -11.34375,-1.74309 -23.15625,-3.44643 -26.25,-3.78518 -3.09375,-0.33876 -6.34814,-1.00186 -7.23199,-1.47356 -1.48188,-0.79086 -16.92067,-2.45549 -42.45551,-4.57757 -17.25603,-1.43407 -38.2316,-4.08887 -52.35856,-6.62685 -8.86128,-1.59198 -18.66329,-2.65628 -38.11019,-4.13804 -26.46623,-2.01659 -38.62837,-3.18934 -49.14951,-4.7393 -5.11816,-0.754 -11.41771,-1.37091 -13.999,-1.37091 -4.73503,0 -15.40053,-1.0903 -29.19524,-2.98455 -15.77998,-2.16686 -86.38827,-1.31133 -123.28125,1.49375 -16.565189,1.25949 -34.978733,4.07599 -48.75,7.45671 -5.757774,1.41348 -19.375981,7.98599 -24.250406,11.7039 -3.640931,2.77707 -5.507952,6.70978 -8.5162521,17.93872 -1.9766057,7.37797 -2.0816847,9.0706 -1.455013,23.4375 0.8863616,20.32048 1.3511894,36.98344 1.7657458,63.29772 0.1868332,11.85937 0.3939731,22.89232 0.460311,24.51766 0.097621,2.39181 0.6567763,3.14208 2.9331143,3.93562 1.546875,0.53924 2.8125,1.37419 2.8125,1.85546 0,2.14392 6.090808,6.64108 10.187227,7.52176 22.014566,4.73287 41.846393,5.61272 112.625273,4.99667 33.55283,-0.29204 48.24539,0.46405 69.375,3.57011 3.35156,0.49268 9.25781,1.09878 13.125,1.34687 8.84563,0.56747 30.63135,2.83977 45.9375,4.79137 6.44531,0.8218 16.36125,1.85916 22.03541,2.30522 16.76632,1.31806 39.64786,4.15779 55.77709,6.92224 4.38281,0.75119 15.14062,2.26937 23.90625,3.37372 8.76562,1.10437 21.21094,2.85685 27.65625,3.8944 6.44531,1.03756 15.72656,2.47982 20.625,3.20501 4.89844,0.7252 11.85937,1.7792 15.46875,2.34222 3.60937,0.56302 15.21094,1.13998 25.78125,1.28214 18.08197,0.24318 47.7509,1.88187 52.13971,2.8798 6.35578,1.44518 45.44333,5.45525 59.05894,6.05896 8.82332,0.39123 16.43302,0.95274 16.91045,1.24781 1.68473,1.04122 30.29566,1.79625 67.35965,1.77759 20.625,-0.0104 40.66406,0.30749 44.53125,0.70638 3.86719,0.3989 7.89133,0.78714 8.94253,0.86276 1.05121,0.0756 9.27777,-0.47898 18.28125,-1.23243 z m -275.0265,-2.00595 c 0.76381,-1.99046 -0.79642,-2.83358 -6.49189,-3.50813 -7.90082,-0.93573 -8.19708,1.62134 -0.43391,3.74507 5.48805,1.50134 6.26901,1.47462 6.9258,-0.23694 z M 59.0625,425.27169 C 59.0625,423.71289 50.796537,420 47.326205,420 c -4.244532,0 -2.093446,2.18577 4.309979,4.37948 7.286196,2.49613 7.426316,2.51295 7.426316,0.89221 z M 37.5,420.9375 c -0.773438,-0.49984 -2.039063,-0.8856 -2.8125,-0.85725 -0.927239,0.0339 -0.767569,0.32599 0.46875,0.85725 2.577267,1.10749 4.057468,1.10749 2.34375,0 z M 775.3125,292.06972 c 10.16024,-0.30765 46.1483,-4.05027 51.35316,-5.34055 2.43545,-0.60375 6.27868,-1.88231 8.5405,-2.84126 l 4.1124,-1.74354 -0.55261,-4.66593 c -0.30394,-2.56627 -0.17904,-4.66594 0.27755,-4.66594 0.82699,0 1.20366,0.96232 2.29348,5.85937 0.48608,2.18423 1.05279,2.57813 3.70917,2.57813 5.53857,0 13.19995,-1.84829 14.41137,-3.47672 0.64695,-0.86964 0.90281,-2.44277 0.56859,-3.49582 -0.94563,-2.97943 -3.1467,-12.69053 -4.0506,-17.87121 -0.44982,-2.57813 -1.46909,-7.41157 -2.26507,-10.74098 -0.79596,-3.32942 -1.24628,-6.25442 -1.00071,-6.50001 0.99586,-0.99585 2.24371,1.58675 3.12119,6.45974 0.51065,2.83594 1.63226,8.10938 2.49245,11.71875 0.8602,3.60938 2.108,9.02882 2.7729,12.04321 1.35714,6.15274 2.43056,7.70162 4.72678,6.82047 1.20449,-0.4622 1.44223,-1.3169 1.01248,-3.6401 -0.3089,-1.66984 -0.99198,-5.70681 -1.51797,-8.97103 -0.52598,-3.26422 -1.79699,-9.14446 -2.82445,-13.06719 -2.10258,-8.02741 -2.26024,-9.59161 -0.96674,-9.59161 0.49575,0 1.35923,1.79297 1.91885,3.98437 0.55962,2.19141 1.46234,5.12408 2.00604,6.51704 0.5437,1.39296 1.89506,7.05547 3.00302,12.58336 1.10795,5.52789 2.45947,10.19669 3.00336,10.3751 1.07617,0.35302 16.10732,-8.4899 17.71219,-10.42019 0.54253,-0.65255 2.40907,-2.16104 4.14786,-3.35223 l 3.16144,-2.16578 -0.60943,-5.94834 c -0.72895,-7.11503 0.6442,-7.94743 2.46656,-1.49521 1.44838,5.12814 4.18745,6.33037 3.73786,1.64063 -0.19119,-1.99438 -1.82742,-4.32635 -5.625,-8.01677 -2.94545,-2.86235 -6.55128,-6.55375 -8.01297,-8.20312 -4.37169,-4.93307 -9.08478,-3.61072 -6.21861,1.74476 1.81964,3.40003 4.81256,19.85128 3.79635,20.86749 -1.11651,1.11651 -1.17531,0.96264 -3.33855,-8.73611 -0.86256,-3.86719 -2.39253,-9.29576 -3.39995,-12.06351 -1.00742,-2.76774 -1.58073,-5.82292 -1.27402,-6.78929 0.63823,-2.01084 0.92842,-1.86963 -14.09512,-6.85853 -20.02693,-6.65037 -42.40457,-12.72608 -46.87282,-12.72633 -1.54807,-9e-5 -6.03196,-0.61581 -9.96418,-1.36825 -8.26667,-1.58187 -43.36436,-4.94892 -61.23745,-5.87473 -17.75938,-0.91993 -28.65001,-0.63359 -38.35865,1.00855 -15.76261,2.66611 -82.10804,2.68045 -107.0044,0.0232 -3.09375,-0.33021 -19.75781,-0.56946 -37.03125,-0.53165 -32.48231,0.0711 -58.66582,-0.93933 -65.76169,-2.53772 -6.2086,-1.39853 -19.69184,-3.59735 -32.20706,-5.25224 -21.02564,-2.78024 -33.82797,-5.05324 -45.92012,-8.15292 -2.05295,-0.52625 -4.73246,-1.74328 -5.95448,-2.70453 -1.22203,-0.96124 -3.6406,-2.01387 -5.37461,-2.33918 -1.73401,-0.32529 -3.66042,-1.20316 -4.28091,-1.95081 -1.73041,-2.08503 -4.2693,-3.1861 -5.90197,-2.55959 -3.37801,1.29627 -0.93851,14.26685 4.12412,21.92759 7.28389,11.0219 16.63411,23.438 19.41515,25.78125 1.22392,1.03125 2.95206,2.98625 3.84032,4.34444 0.88825,1.3582 3.55708,5.36601 5.93073,8.90625 2.37366,3.54024 6.10752,9.71422 8.29748,13.71995 2.18995,4.00572 4.67756,7.64688 5.52801,8.09148 1.5836,0.82787 5.27423,1.47113 27.32753,4.76309 6.96094,1.03907 15.39844,2.32202 18.75,2.851 12.71913,2.00747 35.77972,3.84559 52.03125,4.14731 17.11168,0.3177 23.92701,0.90024 29.13466,2.49029 1.58656,0.48443 11.50062,1.73043 22.03125,2.7689 18.16789,1.79161 29.51103,3.0172 37.89659,4.09461 2.0625,0.265 13.875,1.55617 26.25,2.86926 12.375,1.3131 26.50781,3.01399 31.40625,3.77977 5.40656,0.8452 15.53723,1.39678 25.78125,1.40369 9.28125,0.007 20.46094,0.3661 24.84375,0.79966 4.38281,0.43355 12.39844,0.59047 17.8125,0.34872 5.41406,-0.24176 13.00781,-0.53536 16.875,-0.65246 z M 825,275.9456 c 0,-0.85493 -1.22692,-5.60102 -2.7265,-10.54688 -5.14429,-16.9667 -7.68876,-27.54596 -6.83142,-28.4033 2.09839,-2.09839 5.21691,6.59493 8.64469,24.09833 2.98108,15.22244 3.12203,16.40625 1.9533,16.40625 C 825.46803,277.5 825,276.80051 825,275.9456 Z m -27.34415,0.12906 c -0.79072,-1.20946 -4.53085,-16.59424 -4.53085,-18.63739 0,-0.83886 -0.3993,-2.25777 -0.88732,-3.15312 -1.63382,-2.99745 -5.67518,-14.11772 -5.67518,-15.61593 0,-0.81439 0.35544,-1.48072 0.78987,-1.48072 1.20269,0 3.56023,5.40147 5.3194,12.1875 0.86883,3.35156 1.92632,6.99099 2.34999,8.08762 2.77121,7.17318 4.87527,22.04007 2.63409,18.61204 z m -55.27042,-3.47624 c -0.61493,-1.149 -2.0715,-5.47322 -3.23683,-9.60937 -1.16533,-4.13617 -3.17928,-10.47342 -4.47544,-14.0828 -1.53227,-4.26686 -2.03762,-6.88771 -1.44462,-7.49216 1.35498,-1.38117 2.22781,0.48251 6.36272,13.58591 4.86311,15.41108 6.2296,24.01759 2.79417,17.59842 z m 109.45579,-3.92918 c -0.8408,-3.34721 -1.53505,-7.26476 -1.54279,-8.70567 -0.008,-1.4409 -1.06237,-5.99482 -2.34362,-10.11982 -2.40155,-7.73179 -2.97385,-12.65625 -1.47085,-12.65625 1.81854,0 8.63906,35.66506 7.13307,37.29941 -0.13591,0.14749 -0.93503,-2.47046 -1.77581,-5.81767 z m -36.56654,0.62764 c -0.79117,-2.44922 -2.27931,-7.61719 -3.30696,-11.48438 -1.02766,-3.86719 -2.75124,-10.14347 -3.83017,-13.9473 -1.87962,-6.62667 -1.90027,-8.96203 -0.0626,-7.08395 0.47088,0.48125 1.96525,5.26821 3.32083,10.63769 1.35558,5.36949 3.02342,10.85386 3.70631,12.1875 1.25762,2.45606 2.99014,14.14356 2.0966,14.14356 -0.267,0 -1.13278,-2.00391 -1.92396,-4.45312 z m -82.98141,1.40625 c -0.43193,-1.16016 -1.2536,-3.58594 -1.82593,-5.39063 -0.57234,-1.80469 -1.85798,-5.8125 -2.85697,-8.90625 -2.45515,-7.60326 -3.13247,-11.93009 -2.11006,-13.47949 1.38677,-2.10153 2.67723,-0.44074 3.36241,4.32733 0.35288,2.45557 1.40591,6.99591 2.34007,10.08966 2.82012,9.33962 3.7261,20.43864 1.09048,13.35937 z m 110.84749,0.99987 c -0.43836,-0.67884 -1.27674,-3.55456 -1.86308,-6.3905 -0.58633,-2.83594 -1.95742,-8.2095 -3.04687,-11.94126 -2.17404,-7.4469 -2.42625,-9.62124 -1.11601,-9.62124 1.21667,0 2.51123,4.36908 5.13886,17.34337 2.26384,11.17807 2.41402,12.97426 0.8871,10.60963 z m -61.65156,-0.63128 c -0.28344,-0.45863 -1.79458,-5.00067 -3.35808,-10.09342 -1.56349,-5.09276 -4.08715,-13.22771 -5.60811,-18.07767 -1.52098,-4.84996 -2.50425,-9.24066 -2.18506,-9.75712 0.70763,-1.14498 3.91173,6.47886 3.98467,9.48117 0.0288,1.18576 0.66231,3.3354 1.40777,4.77697 0.74546,1.44156 2.18592,5.74483 3.20103,9.56282 1.0151,3.81797 2.51078,8.50125 3.32374,10.40725 0.84478,1.98063 1.10775,3.69436 0.61375,3.99967 -0.4754,0.29381 -1.09627,0.15896 -1.37971,-0.29967 z m 25.84221,-0.83735 c -0.47277,-0.90234 -1.15997,-3.11718 -1.52713,-4.92187 -0.36716,-1.80469 -2.31551,-8.24738 -4.32967,-14.31711 -3.53241,-10.64499 -4.47212,-15.68289 -2.92531,-15.68289 0.40523,0 2.14897,4.32422 3.87497,9.60937 1.72599,5.28516 3.52896,10.63365 4.0066,11.88555 0.47764,1.2519 1.25531,4.20502 1.72818,6.5625 0.47286,2.35748 1.12973,5.23555 1.45969,6.3957 0.71619,2.51811 -1.02651,2.87525 -2.28733,0.46875 z m 27.95936,-4.51027 c -0.50205,-1.3205 -1.69427,-4.37909 -2.64938,-6.79688 -1.7039,-4.31333 -4.60248,-14.89259 -5.53961,-20.21853 -0.97854,-5.56131 1.89416,-1.83624 4.63871,6.01507 2.41387,6.90535 6.25897,20.64429 6.35249,22.69811 0.0783,1.71845 -1.97673,0.4734 -2.80221,-1.69777 z m -76.85522,-2.29383 c -0.55644,-2.06647 -2.89301,-7.91705 -5.19238,-13.00128 -2.61366,-5.77917 -4.18067,-10.59059 -4.18067,-12.83652 0,-4.32221 0.84608,-3.51027 3.4857,3.34503 1.09197,2.83594 3.49659,9.05577 5.3436,13.82186 1.84701,4.76609 3.3582,9.51219 3.3582,10.54688 0,3.22894 -1.75479,2.05929 -2.81445,-1.87597 z m 12.17509,1.85539 c -1.15025,-2.14926 -2.46916,-12.00884 -1.48587,-11.10765 0.8364,0.76655 4.31273,10.29777 4.31273,11.82438 0,1.83081 -1.69322,1.4015 -2.82686,-0.71673 z m -20.33848,-1.05758 c -0.5917,-1.20825 -3.5317,-9.79058 -6.53336,-19.07183 l -5.45755,-16.875 -4.21875,-0.13496 c -9.48269,-0.30336 -19.33635,-1.56689 -21.18489,-2.71654 -1.08138,-0.67253 -5.51107,-1.71101 -9.84375,-2.30774 -4.33269,-0.59673 -9.77605,-1.67259 -12.09636,-2.3908 -4.7391,-1.46692 -8.91053,-1.60587 -24.18292,-0.8055 -11.75124,0.61583 -14.48791,0.1905 -12.31165,-1.91346 1.75354,-1.69528 23.80633,-3.67194 31.33832,-2.80896 3.09375,0.35447 8.3213,1.47347 11.61677,2.48667 4.08857,1.25702 7.95977,1.74821 12.1875,1.54637 5.41516,-0.25854 6.17915,-0.0903 6.0642,1.33563 -0.1925,2.38759 3.27546,3.02877 16.06903,2.97094 8.40288,-0.038 14.21575,-0.67534 22.96875,-2.51842 6.44531,-1.35717 15.72656,-2.96286 20.625,-3.56821 8.65217,-1.06925 9.20045,-1.0214 19.21875,1.67728 6.81723,1.83638 10.3125,3.21753 10.3125,4.07497 0,2.08409 -2.92506,2.08229 -9.80039,-0.006 -8.85491,-2.68961 -16.93273,-2.48019 -33.17196,0.85999 -7.52058,1.54688 -14.45323,2.8125 -15.4059,2.8125 -0.95268,0 -2.49899,0.56074 -3.43626,1.2461 -1.41651,1.03577 -1.51908,1.59188 -0.60768,3.29483 1.10595,2.06649 4.99698,14.98624 8.00747,26.58794 1.72582,6.65092 1.6439,9.9015 -0.15687,6.22422 z m 123.67029,-3.6258 c -4.18142,-8.57206 -6.93335,-19.28715 -5.30133,-20.6416 1.59791,-1.32615 2.18968,-0.14487 5.9873,11.95171 1.65219,5.26275 2.84505,10.74713 2.6508,12.1875 -0.31965,2.37023 -0.63643,2.03818 -3.33677,-3.49761 z m -280.0362,1.40759 c -2.57813,-0.66268 -6.26953,-1.24538 -8.20313,-1.29487 -4.12618,-0.10563 -4.59829,-1.59978 -0.94444,-2.98897 1.82581,-0.69417 4.79801,-0.64626 10.25263,0.16525 8.72976,1.29877 10.18623,1.92735 9.37347,4.04536 -0.67945,1.77064 -3.79037,1.79238 -10.47853,0.0732 z m -63.47951,-11.48364 c -6.67117,-8.78859 -11.95453,-17.32392 -11.33951,-18.31906 0.38239,-0.61872 1.38498,0.0267 2.56699,1.65265 1.06675,1.46735 3.71683,4.87805 5.8891,7.57934 3.71205,4.61605 7.56454,12.20297 6.65718,13.11033 -0.22506,0.22507 -1.92326,-1.5854 -3.77376,-4.02326 z m 253.49513,2.39564 c -0.61015,-0.61015 -1.11482,-1.76328 -1.12146,-2.5625 -0.007,-0.79921 -0.85041,-4.12742 -1.875,-7.39602 -1.02461,-3.2686 -1.82849,-7.27641 -1.78644,-8.90625 l 0.0765,-2.96335 1.37973,3.16272 c 0.75886,1.7395 1.75226,4.90356 2.20757,7.03125 0.45531,2.1277 1.29122,5.71718 1.85756,7.97664 1.12665,4.49476 0.95399,5.34994 -0.73844,3.65751 z m -19.29696,-7.43057 c -3.88012,-8.47005 -5.70547,-16.5206 -3.15816,-13.9288 1.54037,1.56727 7.56496,19.31112 7.06549,20.80954 -0.17496,0.52487 -1.93326,-2.57146 -3.90733,-6.88074 z m -257.43257,3.18057 C 500.98379,240.71945 491.25,224.73364 491.25,222.48977 c 0,-2.64865 1.99512,-1.00162 5.37667,4.43863 1.94127,3.12312 6.1663,9.73139 9.38895,14.68506 3.22266,4.95365 5.85938,9.14837 5.85938,9.3216 0,1.30544 -3.0459,-0.16668 -4.68266,-2.26319 z m 10.16404,-0.9375 c -3.21476,-3.84494 -12.04388,-18.06955 -12.04388,-19.4039 0,-4.42111 4.98095,1.6042 11.18643,13.53192 3.64517,7.00646 4.03434,9.67164 0.85745,5.87198 z m -26.69182,-10.3125 c -3.76028,-5.86598 -7.82831,-14.10391 -7.8429,-15.88216 -0.0271,-3.29781 2.14154,-1.46344 4.99753,4.22731 1.77774,3.54227 3.68817,7.24459 4.24538,8.22736 2.01838,3.55984 3.75743,8.81812 2.9164,8.81812 -0.47347,0 -2.41585,-2.42578 -4.31641,-5.39063 z m -9.02623,0.006 c -2.20899,-2.46534 -8.14091,-14.70194 -8.8414,-18.23836 -0.54916,-2.77246 -0.4549,-2.96539 0.90325,-1.84865 0.83403,0.68578 2.0223,2.79516 2.64061,4.6875 0.61831,1.89236 2.53851,6.35842 4.26712,9.92459 3.26072,6.72695 3.55546,8.29301 1.03042,5.47492 z m -16.16958,-11.57948 c -4.66549,-7.92109 -6.17837,-11.20265 -5.59778,-12.14205 1.06881,-1.72939 2.13,-0.85099 4.14138,3.42802 1.11724,2.37682 3.06213,5.95437 4.322,7.95012 2.55595,4.04891 2.85735,5.54135 1.11877,5.53993 -0.64453,-5.2e-4 -2.4375,-2.14973 -3.98437,-4.77602 z m -30.23438,-2.73015 c -2.70703,-3.60083 -4.92187,-6.91907 -4.92187,-7.37387 0,-0.4548 -0.59645,-1.32193 -1.32544,-1.92693 -2.18641,-1.81456 -5.47033,-9.5838 -4.47261,-10.58152 0.56283,-0.56283 2.67899,2.06943 5.74701,7.14869 2.67087,4.42177 6.30624,10.19443 8.07859,12.82813 1.77234,2.63371 3.22245,5.16803 3.22245,5.63184 0,1.96903 -1.69811,0.4324 -6.32812,-5.72633 z M 442.5,220.26638 c -5.54095,-8.27496 -8.44423,-13.34912 -7.93936,-13.87589 0.75073,-0.78326 2.60548,1.34967 6.6548,7.65289 6.91263,10.76032 7.04013,10.99696 6.73322,12.49563 -0.16707,0.81576 -2.50272,-1.87309 -5.44866,-6.27263 z m 12.97732,4.96799 c -3.35749,-4.00381 -6.81953,-11.70466 -5.74506,-12.77913 0.90962,-0.90962 8.70524,11.26961 8.70524,13.60034 0,1.34534 -1.49001,0.93199 -2.96017,-0.82121 z m -29.8986,-4.05253 c -1.26361,-2.09934 -4.51773,-6.71583 -7.23139,-10.25887 -5.92242,-7.73251 -9.8301,-15.21269 -9.42488,-18.04135 0.25603,-1.7872 0.45981,-1.87935 1.49959,-0.67806 1.52231,1.75876 7.08174,11.06636 10.62982,17.79644 1.49509,2.83594 4.0586,6.95443 5.69668,9.1522 1.95944,2.62894 2.66176,4.3125 2.05298,4.92128 -0.60878,0.60878 -1.71129,-0.38044 -3.2228,-2.89164 z m 175.89239,-0.95798 c -9.45796,-1.77818 -11.98592,-2.89655 -10.31785,-4.56462 0.57934,-0.57934 2.2435,-0.426 4.64063,0.4276 2.05554,0.73197 6.05767,1.35514 8.89361,1.38481 6.89563,0.0722 9.53413,0.85345 9.17526,2.71692 -0.39541,2.05318 -1.63978,2.05673 -12.39165,0.0352 z m -37.17035,-23.15859 c 5.01891,-0.80137 6.39066,-0.71796 8.25223,0.50179 2.07086,1.35688 2.43031,1.31686 4.95816,-0.55206 1.49898,-1.10825 3.45306,-2.015 4.34239,-2.015 5.79648,0 16.60123,-9.4009 17.73193,-15.42804 1.15583,-6.1611 0.0332,-12.84345 -2.92059,-17.38446 -5.76042,-8.85581 -16.87648,-18.97227 -25.72738,-23.41388 -2.32031,-1.1644 -4.86251,-2.68059 -5.64934,-3.36931 -0.78681,-0.68874 -5.42744,-2.79137 -10.3125,-4.67254 -4.88505,-1.88117 -9.31704,-3.77488 -9.84887,-4.20826 -0.53181,-0.43337 -4.60973,-1.84359 -9.06203,-3.13382 -11.22222,-3.25207 -18.62146,-7.22295 -25.15702,-13.50079 -6.91692,-6.64415 -10.2191,-9.5764 -10.78456,-9.5764 -0.23962,0 -0.43568,0.63281 -0.43568,1.40625 0,0.77344 0.62715,1.40625 1.39367,1.40625 3.42622,0 5.6918,14.78663 3.24971,21.20978 -0.53989,1.42003 -3.90589,5.41477 -7.47999,8.87722 -6.8535,6.6394 -17.05858,12.33849 -27.2629,15.22514 -2.7812,0.78676 -10.11924,2.90106 -16.30674,4.69843 -6.1875,1.79739 -12.72656,3.54401 -14.53125,3.88139 -14.28229,2.67002 -34.89729,12.891 -35.44723,17.57483 -0.21216,1.80695 0.34957,2.89802 2.07365,4.02768 2.99764,1.96412 9.46867,2.89527 10.33861,1.48767 0.3551,-0.57455 1.28706,-1.04464 2.07104,-1.04464 1.09606,0 1.28268,0.64984 0.80768,2.8125 -0.52845,2.40601 -0.34198,2.8125 1.29013,2.8125 1.04932,0 3.46202,-1.05469 5.36156,-2.34375 3.40937,-2.31367 7.87956,-3.15525 7.87956,-1.48346 0,0.47316 -1.58203,1.63332 -3.51563,2.57812 -3.83103,1.87196 -4.26858,3.41455 -1.10783,3.90567 1.19668,0.18596 3.01801,-0.64545 4.49026,-2.04973 2.66549,-2.54239 6.65068,-4.35685 9.56923,-4.35685 3.16138,0 1.96505,1.9136 -2.40478,3.84658 -4.29164,1.8984 -5.41341,3.93189 -2.73582,4.95937 2.95301,1.13317 5.3465,0.5152 8.89754,-2.29728 4.14088,-3.27964 10.24453,-4.80645 10.24453,-2.56264 0,0.78024 -1.64842,1.92289 -3.797,2.63198 -4.32245,1.42653 -5.46044,2.63943 -3.58874,3.82495 2.78121,1.76158 6.72948,0.84246 10.83601,-2.52254 2.76206,-2.2633 4.64052,-3.16412 5.72155,-2.74377 1.40643,0.54687 1.28426,0.90707 -0.9687,2.85586 -2.99209,2.58813 -3.37867,5.13249 -0.7798,5.13249 0.98908,0 2.43469,0.24419 3.21246,0.54265 0.83829,0.32169 2.644,-0.63269 4.43447,-2.34375 3.90568,-3.73247 8.80334,-4.12607 5.086,-0.40872 -0.77344,0.77344 -1.40625,1.85354 -1.40625,2.40023 0,1.62522 7.1746,0.20163 9.93774,-1.97185 1.37644,-1.08271 3.33521,-1.96856 4.35283,-1.96856 1.5054,0 1.74058,0.43676 1.26195,2.34375 -0.48877,1.94741 -0.25247,2.34375 1.39731,2.34375 1.09206,0 3.43549,-0.68804 5.20764,-1.52898 3.12318,-1.48204 5.79357,-1.03923 3.24214,0.53764 -0.69565,0.42994 -0.97494,1.25075 -0.62064,1.82403 0.98541,1.59442 6.94043,1.24023 10.05213,-0.59789 2.72465,-1.60949 2.80832,-1.59821 4.46851,0.60274 1.37577,1.82392 2.19767,2.11974 4.39925,1.5834 6.21381,-1.51378 7.86364,-1.66142 7.86364,-0.70371 0,1.976 25.73146,2.2153 37.42576,0.34805 z m -20.08201,-18.62254 c -4.64063,-1.84419 -13.07813,-5.6284 -18.75,-8.40936 -5.67188,-2.78095 -10.65503,-5.05113 -11.07368,-5.04483 -0.41864,0.007 -3.16083,-1.13161 -6.09375,-2.52868 -4.37416,-2.0836 -6.97629,-2.60872 -14.47821,-2.92174 -8.37203,-0.34932 -9.56153,-0.17612 -14.0625,2.04758 -2.70428,1.33604 -7.44811,3.05953 -10.54186,3.82998 -3.09375,0.77044 -9.42187,2.42451 -14.0625,3.67572 -10.04573,2.70853 -21.00171,3.87041 -28.11529,2.98162 -7.44483,-0.93016 -6.35629,-2.40963 1.684,-2.28878 7.54829,0.11347 17.1386,-2.14984 28.77504,-6.79089 8.44258,-3.36722 27.2818,-7.37372 34.58205,-7.35449 8.19947,0.0216 15.72127,2.2337 29.78189,8.75866 18.04454,8.37375 32.47458,15.5035 33.54574,16.57466 1.83765,1.83765 -2.89155,0.76872 -11.19093,-2.52945 z M 536.25,113.26474 c 0,-6.81072 2.87768,-12.36199 7.94882,-15.333874 2.21031,-1.295325 9.23619,-3.627282 15.61309,-5.182118 21.89882,-5.339466 32.33671,-9.638724 51.55502,-21.23499 7.37953,-4.452786 13.9257,-7.636757 20.74244,-10.088849 3.9961,-1.437458 7.26563,-2.933193 7.26563,-3.323853 0,-3.578978 -22.65902,0.758577 -35.88505,6.869378 -13.71932,6.338718 -19.43156,7.601623 -33.48995,7.404219 -14.48955,-0.203457 -25.34491,0.903491 -36.09375,3.680571 -9.93773,2.567518 -29.28516,3.489442 -30.07426,1.433069 -0.66515,-1.733343 1.13734,-5.297503 2.68537,-5.309951 1.72492,-0.01387 9.97633,-4.336476 14.78407,-7.744832 6.38999,-4.530056 11.02134,-10.187375 12.96521,-15.837327 4.28224,-12.446526 14.09246,-22.881459 28.50005,-30.314933 4.99693,-2.578125 9.09051,-5.214844 9.09683,-5.859375 0.007,-0.644531 -0.094,-1.167308 -0.2229,-1.161728 -1.61681,0.07 -10.03281,3.192542 -12.28722,4.558852 -6.21476,3.766532 -23.84048,12.177218 -29.6659,14.156047 -10.87379,3.693703 -23.7188,6.684609 -32.34375,7.531107 -39.32041,3.859108 -45.35696,5.086819 -53.20313,10.820429 -5.83365,4.262959 -6.26979,8.223494 -1.8409,16.716855 4.54554,8.71707 9.95635,12.707293 19.08827,14.076708 l 4.32559,0.648662 0.60552,-3.2277 c 0.61919,-3.300613 2.90316,-6.068854 4.05599,-4.916016 0.35325,0.353254 0.52391,2.281721 0.37924,4.285482 -0.4524,6.265653 5.46053,10.207231 7.45252,4.967882 0.92597,-2.435485 2.40372,-3.957771 3.87239,-3.989099 0.37016,-0.0079 0.58109,2.200488 0.46875,4.907519 -0.17812,4.29251 0.0355,4.954599 1.67076,5.177789 1.26789,0.173052 2.40338,-0.68138 3.50688,-2.638859 2.18361,-3.873488 3.40593,-2.828367 2.81576,2.40757 -0.40553,3.59786 -0.12838,4.650122 1.75412,6.659817 l 2.23574,2.386817 1.02211,-3.598129 c 1.33516,-4.700174 3.57032,-4.746786 3.95636,-0.0825 0.31046,3.751256 1.6034,4.488553 3.44783,1.966143 1.78378,-2.439455 3.58308,-0.604723 2.99016,3.049032 -0.3684,2.270193 -0.0122,3.725785 1.29012,5.271445 l 1.79906,2.13525 1.83719,-2.34375 c 2.13589,-2.724802 2.96481,-2.13864 4.66682,3.30006 1.07741,3.44283 5.82949,7.94994 8.38202,7.94994 0.45332,0 1.83218,0.79287 3.06413,1.76191 2.24077,1.7626 4.54082,2.61258 7.62232,2.81684 1.36551,0.0905 1.64063,-0.70626 1.64063,-4.75151 z M 456.64361,74.214068 c -1.19084,-2.225115 -0.32565,-5.689138 2.08672,-8.354693 1.9887,-2.197431 4.39467,-2.818555 4.39467,-1.134527 0,0.536167 -0.84375,2.628735 -1.875,4.650152 -1.03125,2.021417 -1.875,4.324923 -1.875,5.118902 0,1.981156 -1.60959,1.816251 -2.73139,-0.279834 z m -5.70611,-7.688916 c 0,-2.617085 3.51601,-9.306707 5.23904,-9.967897 2.3827,-0.914329 2.55271,0.366001 0.60624,4.565688 -1.02813,2.218319 -2.11787,4.771588 -2.42164,5.673932 -0.77047,2.288722 -3.42364,2.078148 -3.42364,-0.271723 z M 504.375,60.46875 c 5.9852,-6.038875 8.4375,-7.401265 8.4375,-4.6875 0,0.773437 -0.368,1.40625 -0.81776,1.40625 -0.44977,0 -2.87555,2.098541 -5.39063,4.663424 -2.51508,2.564883 -5.40442,4.674258 -6.42078,4.6875 -1.39768,0.01821 -0.37638,-1.460652 4.19167,-6.069674 z m 7.5,4.968396 c 0,-2.54537 10.27182,-15.749646 12.25191,-15.749646 3.11266,0 2.0574,3.229589 -2.64254,8.087399 -7.15287,7.393154 -9.60937,9.351897 -9.60937,7.662247 z m -22.5,-0.602098 c 0,-1.255744 11.28691,-10.460048 12.82678,-10.460048 2.39484,0 0.82833,2.181232 -4.88136,6.796875 -5.1877,4.193663 -7.94542,5.46509 -7.94542,3.663173 z m -7.5,-2.05119 c 0,-1.108682 5.50371,-6.160034 9.55787,-8.772297 2.04725,-1.31913 3.01715,-1.499038 3.80956,-0.706637 1.15703,1.15704 0.29018,2.052756 -6.023,6.223564 -1.89025,1.248796 -3.70812,2.709506 -4.03971,3.246024 -0.7795,1.261268 -3.30472,1.268409 -3.30472,0.0094 z m -3.75,-3.63802 c 0,-1.252181 5.54502,-5.708338 7.10318,-5.708338 1.99304,0 1.62317,1.330464 -1.13727,4.090909 -2.39169,2.391692 -5.96591,3.360705 -5.96591,1.617429 z M 467.34375,664.70781 c -2.0625,-0.9561 -6.28125,-2.58629 -9.375,-3.62264 -3.09375,-1.03635 -7.3125,-2.5297 -9.375,-3.31857 -2.0625,-0.78887 -5.85938,-1.46288 -8.4375,-1.49781 -4.87766,-0.0661 -11.42847,-1.29101 -12.46899,-2.33154 -2.32514,-2.32514 10.96115,-3.18628 20.96868,-1.35907 7.46666,1.36328 16.87244,5.13969 21.7057,8.7148 6.5204,4.82309 4.63125,6.96071 -3.01789,3.41483 z"
     id="path3346"
     inkscape:connector-curvature="0" />
</svg>
