<svg xmlns="http://www.w3.org/2000/svg" viewBox="0 0 557.63 500"><defs><style>.cls-1{fill:#1a1710;}</style></defs><g id="Capa_2" data-name="Capa 2"><g id="Kettle"><path class="cls-1" d="M502.89,87.24c-7.19,0-13.77,2.22-20.31,4a123.37,123.37,0,0,1-18.45,3.31l-1.56-17a27.26,27.26,0,0,1,2.57-14.2c8-4.12,12.37-8.58,12.37-13.23,0-2.5-.31-11.6-.31-12.2C477.2,17,429.37.05,280.07,0h-.57C130.2.05,82.37,17,82.37,37.87h0v0c0,1.55-.89,9.57-.89,12.17,0,4.66,4.4,9.12,12.41,13.25a27.18,27.18,0,0,1,2.38,13.8l-1.6,17.53a126.66,126.66,0,0,1-19.62-3.43c-6.54-1.76-13.12-4-20.31-4-63.3,2.06-82.07,93.38,0,136a87.75,87.75,0,0,1,26.47,19l-3.49,38.3-9.93,15.11a27.39,27.39,0,0,0-4.67,15.27c0,7.62,3.56,14.21,11,20,2.29,25.57,16.34,49.16,38.81,68.65v28.09a13.6,13.6,0,0,0,13.6,13.61H148a13.61,13.61,0,0,0,13.45-11.62c25.1,11.1,54.32,18.76,85.93,21.88v34.87A13.6,13.6,0,0,0,261,500H298a13.61,13.61,0,0,0,13.61-13.61V451.5c31.61-3.13,60.82-10.81,85.91-21.94A13.61,13.61,0,0,0,411,441.26h21.43a13.61,13.61,0,0,0,13.61-13.61V399.4c22.31-19.42,36.28-42.9,38.61-68.34,7.59-5.8,11.22-12.44,11.22-20.12a27.44,27.44,0,0,0-4.67-15.28l-10-15.23-.1.11-3.59-39.37a88,88,0,0,1,25.4-17.9C585,180.62,566.19,89.3,502.89,87.24ZM28.22,141a26.54,26.54,0,0,1,26.52-26.53c11.39,2,25.38,6.65,37.45,7.35l-8,87.36C55,192.77,25.25,177.45,28.22,141Zm446.3,67.55-7.91-86.81c11.8-.91,25.26-5.37,36.28-7.27A26.54,26.54,0,0,1,529.41,141C532.34,177,503.37,192.38,474.52,208.53Z"/></g></g></svg>