<svg xmlns="http://www.w3.org/2000/svg" viewBox="0 0 395.81 1200"><defs><style>.cls-1{fill:#1a1710;}</style></defs><g id="Capa_2" data-name="Capa 2"><g id="Wand"><path class="cls-1" d="M66.46,1188.26l-.53-39.9,7-24a35.78,35.78,0,0,0,15.69-54l23.86-82.05c11.46-7.78,21.85-22.58,27.44-41.17,5.77-19.2,5.06-37.87-.72-50.74l30.26-104c10.8-7.15,20.63-21,25.88-38.51,5.43-18,4.7-35.62-.86-47.57l34.9-120c9.63-6.43,18.38-18.82,23.07-34.42,4.84-16.1,4.21-31.78-.71-42.49L288.9,381.54c7.89-5.63,15-16,18.85-28.81,4-13.28,3.6-26.2-.21-35.3l41.55-142.89c5.75-4.72,10.83-12.51,13.7-22.06,3-9.89,2.94-19.55.49-26.75L395.35,15.45a12.13,12.13,0,0,0-23.23-7l-34,109.68c-6,4.66-11.37,12.7-14.35,22.6-2.87,9.55-2.92,18.86-.72,26L278.94,308.81c-8.21,5.49-15.67,16.06-19.66,29.36-3.87,12.87-3.63,25.4-.14,34.45L219.69,499.78c-10,6.22-19.2,19-24.05,35.08-4.69,15.61-4.22,30.8.3,41.47l-37,119.3c-11.23,6.9-21.55,21.18-27,39.25-5.26,17.5-4.7,34.53.4,46.45l-32.08,103.4c-11.94,7.53-22.85,22.74-28.62,42-5.6,18.62-5.08,36.73.22,49.54l-25.29,81.52a35.78,35.78,0,0,0-16.68,53.76l-7.33,23.62L0,1168.3s-2,20.44,27.41,29.28S66.46,1188.26,66.46,1188.26Z"/></g></g></svg>